<svg xmlns="http://www.w3.org/2000/svg" xmlns:xlink="http://www.w3.org/1999/xlink" version="1.1" width="256" height="256" viewBox="0 0 256 256" xml:space="preserve">
<g style="stroke: none; stroke-width: 0; stroke-dasharray: none; stroke-linecap: butt; stroke-linejoin: miter; stroke-miterlimit: 10; fill: none; fill-rule: nonzero; opacity: 1;" transform="translate(1.4065934065934016 1.4065934065934016) scale(2.81 2.81)">
	<path d="M 90 45 c 0 -6.619 -1.448 -12.903 -4.026 -18.568 c 1.06 -0.918 1.746 -2.256 1.746 -3.765 c 0 -2.757 -2.243 -5 -5 -5 c -0.616 0 -1.2 0.127 -1.745 0.332 C 72.756 7.077 59.69 0 45 0 c -7.514 0 -14.597 1.861 -20.83 5.131 c -0.916 -1.014 -2.226 -1.663 -3.697 -1.663 c -2.757 0 -5 2.243 -5 5 c 0 0.781 0.196 1.511 0.516 2.17 c -2.66 2.249 -5.06 4.797 -7.139 7.597 c -0.683 -0.351 -1.446 -0.568 -2.265 -0.568 c -2.757 0 -5 2.243 -5 5 c 0 1.743 0.9 3.277 2.257 4.172 C 1.379 32.398 0 38.539 0 45 c 0 5.871 1.142 11.477 3.196 16.624 c -1.282 0.906 -2.126 2.393 -2.126 4.079 c 0 2.757 2.243 5 5 5 c 0.629 0 1.226 -0.13 1.781 -0.343 c 3.838 5.605 8.913 10.293 14.824 13.686 c -0.06 0.309 -0.096 0.627 -0.096 0.953 c 0 2.757 2.243 5 5 5 c 1.646 0 3.098 -0.81 4.009 -2.042 C 35.825 89.284 40.331 90 45 90 c 12.25 0 23.366 -4.925 31.488 -12.893 c 0.675 0.34 1.426 0.55 2.232 0.55 c 2.757 0 5 -2.243 5 -5 c 0 -1.155 -0.41 -2.206 -1.07 -3.053 C 87.29 62.527 90 54.076 90 45 z M 82.287 19.711 c 0.142 -0.023 0.284 -0.044 0.432 -0.044 c 0.207 0 0.409 0.021 0.604 0.061 c 1.105 0.226 1.977 1.065 2.275 2.143 c 0.071 0.255 0.121 0.519 0.121 0.796 c 0 0.19 -0.021 0.373 -0.056 0.552 c -0.019 0.101 -0.051 0.196 -0.08 0.294 c -0.02 0.065 -0.036 0.132 -0.061 0.195 c -0.05 0.133 -0.111 0.259 -0.178 0.382 c -0.009 0.016 -0.017 0.032 -0.026 0.047 c -0.516 0.909 -1.48 1.529 -2.6 1.529 c -0.884 0 -1.67 -0.389 -2.219 -0.997 c -0.025 -0.028 -0.047 -0.058 -0.071 -0.087 c -0.116 -0.138 -0.218 -0.286 -0.308 -0.444 c -0.028 -0.049 -0.055 -0.098 -0.081 -0.148 c -0.075 -0.151 -0.135 -0.309 -0.183 -0.474 c -0.017 -0.056 -0.038 -0.11 -0.052 -0.168 c -0.052 -0.22 -0.085 -0.447 -0.085 -0.683 c 0 -0.019 0.005 -0.037 0.006 -0.057 c 0.003 -0.173 0.019 -0.343 0.051 -0.507 c 0.026 -0.136 0.07 -0.265 0.114 -0.394 c 0.013 -0.038 0.021 -0.078 0.036 -0.115 C 80.308 20.6 81.201 19.869 82.287 19.711 z M 25.184 6.857 C 31.118 3.761 37.856 2 45 2 c 13.975 0 26.411 6.705 34.27 17.064 c -0.951 0.911 -1.55 2.186 -1.55 3.603 c 0 1.923 1.103 3.576 2.699 4.413 c -1.994 6.316 -5.042 12.138 -8.921 17.283 C 70.926 44.134 70.305 44 69.652 44 c -0.751 0 -1.456 0.178 -2.096 0.476 c -7.76 -10.073 -18.616 -17.58 -31.045 -21.152 c 0.029 -0.217 0.066 -0.432 0.066 -0.657 c 0 -2.757 -2.243 -5 -5 -5 c -0.657 0 -1.282 0.135 -1.858 0.367 c -1.546 -2.339 -3.265 -4.581 -5.152 -6.713 c 0.566 -0.81 0.904 -1.792 0.904 -2.853 C 25.473 7.901 25.358 7.365 25.184 6.857 z M 72.652 49 c 0 0.007 -0.002 0.013 -0.002 0.02 c -0.001 0.187 -0.02 0.369 -0.055 0.545 c -0.026 0.134 -0.069 0.261 -0.112 0.388 c -0.014 0.04 -0.022 0.082 -0.037 0.121 C 72.013 51.199 70.93 52 69.652 52 h 0 h 0 c -0.186 0 -0.365 -0.022 -0.542 -0.055 c -0.056 -0.01 -0.11 -0.025 -0.165 -0.038 c -0.121 -0.03 -0.239 -0.066 -0.354 -0.11 c -0.056 -0.021 -0.112 -0.041 -0.166 -0.065 c -0.139 -0.063 -0.273 -0.135 -0.399 -0.217 c -0.697 -0.452 -1.188 -1.184 -1.326 -2.039 c -0.029 -0.155 -0.048 -0.313 -0.048 -0.477 c 0 -0.186 0.022 -0.366 0.055 -0.543 c 0.011 -0.058 0.026 -0.114 0.04 -0.171 c 0.029 -0.116 0.064 -0.23 0.106 -0.34 c 0.024 -0.063 0.047 -0.125 0.074 -0.186 c 0.05 -0.11 0.109 -0.214 0.172 -0.317 c 0.448 -0.733 1.196 -1.254 2.078 -1.395 C 69.332 46.019 69.49 46 69.652 46 h 0 h 0 c 1.279 0 2.363 0.804 2.795 1.931 c 0.017 0.042 0.026 0.088 0.041 0.131 c 0.041 0.123 0.083 0.245 0.108 0.375 c 0.035 0.176 0.054 0.358 0.055 0.544 C 72.651 48.988 72.652 48.994 72.652 49 z M 65.274 51.365 c -6.808 6.534 -15.168 11.405 -24.356 14.047 c -0.47 -1.172 -1.371 -2.117 -2.506 -2.656 c 0.766 -3.848 1.159 -7.79 1.159 -11.788 c 0 -8.507 -1.763 -16.715 -5.094 -24.244 c 0.56 -0.401 1.025 -0.917 1.379 -1.51 c 12.049 3.438 22.574 10.701 30.095 20.453 c -0.799 0.887 -1.3 2.048 -1.3 3.332 C 64.652 49.86 64.891 50.657 65.274 51.365 z M 36.283 70.262 c -1.657 0 -3 -1.343 -3 -3 s 1.343 -3 3 -3 c 0.892 0 1.684 0.397 2.233 1.014 c 0.016 0.019 0.031 0.038 0.047 0.057 c 0.442 0.523 0.719 1.19 0.719 1.928 c 0 0.556 -0.161 1.07 -0.425 1.516 c -0.013 0.022 -0.023 0.046 -0.037 0.068 c -0.068 0.108 -0.146 0.208 -0.226 0.306 c -0.028 0.035 -0.055 0.07 -0.085 0.103 c -0.083 0.093 -0.173 0.179 -0.267 0.261 c -0.033 0.029 -0.067 0.056 -0.101 0.083 c -0.101 0.08 -0.204 0.155 -0.315 0.222 c -0.027 0.016 -0.056 0.03 -0.083 0.045 c -0.403 0.226 -0.858 0.365 -1.348 0.383 c 0 0 -0.001 0 -0.001 0 l 0 0 C 36.356 70.252 36.321 70.262 36.283 70.262 z M 34.578 22.667 c 0 1.657 -1.343 3 -3 3 c -0.002 0 -0.004 -0.001 -0.006 -0.001 c -0.185 0 -0.364 -0.022 -0.539 -0.054 c -0.064 -0.012 -0.125 -0.03 -0.187 -0.046 c -0.109 -0.028 -0.215 -0.059 -0.318 -0.099 c -0.075 -0.028 -0.148 -0.058 -0.219 -0.092 c -0.078 -0.037 -0.152 -0.079 -0.226 -0.122 c -0.34 -0.197 -0.636 -0.456 -0.874 -0.766 c -0.004 -0.005 -0.008 -0.01 -0.012 -0.015 c -0.086 -0.113 -0.161 -0.232 -0.23 -0.357 c -0.008 -0.014 -0.016 -0.029 -0.023 -0.043 c -0.225 -0.421 -0.365 -0.895 -0.365 -1.406 c 0 -1.497 1.1 -2.728 2.534 -2.953 c 0.152 -0.027 0.306 -0.047 0.466 -0.047 c 0.187 0 0.369 0.022 0.546 0.055 c 1.377 0.254 2.421 1.445 2.448 2.89 C 34.573 22.631 34.578 22.648 34.578 22.667 L 34.578 22.667 L 34.578 22.667 z M 20.473 5.467 c 0.004 0 0.007 0.001 0.011 0.001 c 0.185 0.001 0.365 0.021 0.541 0.055 c 0.109 0.02 0.211 0.055 0.316 0.087 c 0.059 0.018 0.119 0.033 0.176 0.055 c 0.139 0.052 0.27 0.116 0.398 0.187 c 0.011 0.006 0.023 0.012 0.034 0.018 c 0.903 0.514 1.519 1.472 1.524 2.584 c 0 0.005 0.001 0.009 0.001 0.013 c 0 0.002 -0.001 0.004 -0.001 0.006 c 0 0.229 -0.032 0.45 -0.081 0.664 c -0.003 0.011 -0.007 0.022 -0.01 0.033 c -0.265 1.097 -1.127 1.956 -2.228 2.212 c -0.008 0.002 -0.016 0.005 -0.024 0.007 c -0.209 0.047 -0.426 0.076 -0.649 0.076 c -0.003 0 -0.005 0.001 -0.008 0.001 c -0.186 0 -0.367 -0.022 -0.544 -0.055 c -0.057 -0.01 -0.111 -0.025 -0.166 -0.039 c -0.12 -0.029 -0.237 -0.065 -0.35 -0.109 c -0.058 -0.022 -0.117 -0.043 -0.173 -0.069 c -0.123 -0.056 -0.241 -0.121 -0.354 -0.192 c -0.717 -0.45 -1.225 -1.191 -1.364 -2.061 c -0.028 -0.151 -0.046 -0.306 -0.047 -0.466 c 0 -0.003 -0.001 -0.006 -0.001 -0.01 C 17.473 6.81 18.816 5.467 20.473 5.467 z M 17.21 12.224 c 0.878 0.764 2.011 1.243 3.263 1.243 c 0.973 0 1.874 -0.291 2.643 -0.773 c 1.805 2.045 3.45 4.194 4.932 6.436 c -0.617 0.616 -1.057 1.399 -1.286 2.267 C 24.536 21.145 22.281 21 19.996 21 c -2.838 0 -5.687 0.23 -8.52 0.638 c -0.17 -0.81 -0.553 -1.535 -1.064 -2.15 C 12.391 16.812 14.676 14.376 17.21 12.224 z M 3.585 22.667 c 0 -0.207 0.021 -0.409 0.061 -0.604 c 0.24 -1.172 1.163 -2.095 2.335 -2.335 c 0.195 -0.04 0.397 -0.061 0.604 -0.061 c 0.195 0 0.384 0.02 0.568 0.057 c 1.385 0.266 2.432 1.48 2.432 2.943 c 0 0.914 -0.418 1.723 -1.063 2.273 c -0.022 0.019 -0.044 0.037 -0.067 0.055 c -0.181 0.146 -0.377 0.273 -0.589 0.374 c -0.017 0.008 -0.032 0.019 -0.049 0.026 c -0.073 0.033 -0.148 0.057 -0.224 0.085 c -0.091 0.033 -0.184 0.063 -0.28 0.087 c -0.07 0.018 -0.139 0.035 -0.21 0.047 c -0.158 0.028 -0.32 0.047 -0.486 0.049 c -0.011 0 -0.022 0.003 -0.033 0.003 c -0.947 0 -1.782 -0.448 -2.332 -1.134 c -0.003 -0.004 -0.007 -0.008 -0.01 -0.012 c -0.123 -0.155 -0.23 -0.321 -0.321 -0.499 c -0.013 -0.025 -0.028 -0.048 -0.04 -0.073 c -0.076 -0.159 -0.135 -0.326 -0.182 -0.499 c -0.012 -0.043 -0.029 -0.083 -0.039 -0.127 c -0.047 -0.208 -0.075 -0.423 -0.076 -0.645 C 3.586 22.674 3.585 22.671 3.585 22.667 z M 2 45 c 0 -6.2 1.329 -12.093 3.702 -17.422 c 0.288 0.052 0.581 0.089 0.883 0.089 c 2.418 0 4.439 -1.726 4.9 -4.01 C 14.315 23.236 17.161 23 19.996 23 c 2.249 0 4.467 0.145 6.656 0.398 c 0.357 2.409 2.419 4.269 4.926 4.269 c 0.37 0 0.727 -0.046 1.074 -0.123 c 3.217 7.275 4.919 15.205 4.919 23.425 c 0 3.835 -0.372 7.618 -1.102 11.312 c -0.063 -0.002 -0.123 -0.019 -0.187 -0.019 c -2.757 0 -5 2.243 -5 5 c 0 0.016 0.005 0.03 0.005 0.046 c -2.041 0.222 -4.104 0.35 -6.19 0.35 c -4.751 0 -9.458 -0.582 -14.051 -1.73 c 0.003 -0.076 0.023 -0.148 0.023 -0.224 c 0 -2.757 -2.243 -5 -5 -5 c -0.358 0 -0.706 0.041 -1.043 0.113 C 3.081 55.917 2 50.584 2 45 z M 6.723 68.627 L 6.723 68.627 C 6.723 68.627 6.723 68.627 6.723 68.627 c -0.204 0.045 -0.414 0.072 -0.631 0.074 c -0.008 0 -0.014 0.003 -0.022 0.003 c -0.264 0 -0.515 -0.045 -0.759 -0.109 c -1.095 -0.288 -1.951 -1.168 -2.18 -2.287 c -0.04 -0.195 -0.061 -0.397 -0.061 -0.604 c 0 -0.006 0.002 -0.012 0.002 -0.018 c 0.001 -0.206 0.023 -0.407 0.064 -0.601 c 0.004 -0.02 0.013 -0.038 0.018 -0.058 c 0.308 -1.33 1.493 -2.323 2.917 -2.323 c 0.021 0 0.041 0.006 0.062 0.006 c 0.177 0.004 0.35 0.019 0.518 0.052 c 0.094 0.018 0.181 0.052 0.271 0.079 c 0.089 0.027 0.179 0.048 0.264 0.082 c 0.117 0.047 0.224 0.108 0.333 0.169 c 0.049 0.027 0.1 0.05 0.147 0.08 c 0.126 0.08 0.242 0.172 0.354 0.269 c 0.021 0.018 0.044 0.034 0.065 0.053 c 0.124 0.113 0.235 0.237 0.339 0.369 c 0.005 0.006 0.01 0.012 0.015 0.018 c 0.391 0.507 0.632 1.134 0.632 1.823 C 9.07 67.135 8.065 68.328 6.723 68.627 z M 23.45 82.186 c -5.536 -3.221 -10.293 -7.636 -13.909 -12.898 c 0.42 -0.407 0.758 -0.89 1.016 -1.422 c 4.752 1.189 9.624 1.791 14.54 1.791 c 2.23 0 4.435 -0.139 6.615 -0.385 c 0.43 0.973 1.167 1.769 2.081 2.299 c -1.16 3.045 -2.582 5.996 -4.258 8.829 c -0.602 -0.257 -1.263 -0.4 -1.957 -0.4 C 25.865 80 24.351 80.868 23.45 82.186 z M 28.651 87.794 c -0.042 0.017 -0.088 0.026 -0.132 0.041 c -0.124 0.041 -0.246 0.084 -0.377 0.109 C 27.96 87.979 27.772 88 27.578 88 c -0.205 0 -0.404 -0.021 -0.597 -0.06 c -0.132 -0.027 -0.255 -0.073 -0.38 -0.116 c -0.057 -0.02 -0.118 -0.031 -0.173 -0.054 c -1.086 -0.451 -1.85 -1.521 -1.85 -2.77 c 0 -0.931 0.433 -1.752 1.099 -2.303 c 0.009 -0.007 0.018 -0.015 0.026 -0.022 c 0.152 -0.123 0.315 -0.23 0.49 -0.322 c 0.031 -0.016 0.06 -0.034 0.091 -0.049 c 0.158 -0.076 0.324 -0.136 0.496 -0.183 c 0.046 -0.013 0.089 -0.031 0.136 -0.042 C 27.129 82.031 27.35 82 27.578 82 c 0.165 0 0.325 0.019 0.482 0.049 c 0.855 0.139 1.587 0.633 2.038 1.333 c 0.08 0.124 0.15 0.255 0.212 0.39 c 0.025 0.056 0.045 0.114 0.067 0.172 c 0.043 0.114 0.079 0.23 0.108 0.349 c 0.013 0.056 0.028 0.11 0.038 0.167 c 0.032 0.176 0.055 0.355 0.055 0.541 C 30.578 86.277 29.776 87.361 28.651 87.794 z M 74.907 75.853 C 67.161 83.363 56.615 88 45 88 c -4.368 0 -8.585 -0.659 -12.56 -1.876 c 0.084 -0.363 0.138 -0.736 0.138 -1.124 c 0 -1.34 -0.537 -2.552 -1.398 -3.451 c 1.783 -2.996 3.289 -6.121 4.513 -9.347 c 0.195 0.023 0.387 0.06 0.589 0.06 c 2.713 0 4.917 -2.175 4.987 -4.871 c 9.536 -2.707 18.219 -7.734 25.292 -14.492 C 67.415 53.578 68.48 54 69.652 54 c 0.536 0 1.042 -0.107 1.527 -0.264 c 2.395 4.482 4.221 9.323 5.375 14.435 c -1.671 0.81 -2.834 2.508 -2.834 4.486 C 73.72 73.878 74.177 74.984 74.907 75.853 z M 78.719 75.657 c -0.001 0 -0.002 0 -0.003 0 c -0.159 0 -0.312 -0.02 -0.463 -0.047 c -0.932 -0.146 -1.712 -0.718 -2.151 -1.514 c -0.021 -0.037 -0.041 -0.073 -0.06 -0.111 c -0.049 -0.099 -0.094 -0.2 -0.132 -0.305 c -0.029 -0.078 -0.052 -0.159 -0.075 -0.24 c -0.022 -0.081 -0.047 -0.16 -0.062 -0.244 c -0.032 -0.168 -0.051 -0.34 -0.052 -0.517 c 0 -0.007 -0.002 -0.014 -0.002 -0.022 c 0 -0.235 0.033 -0.46 0.084 -0.679 c 0.013 -0.055 0.034 -0.106 0.049 -0.159 c 0.049 -0.167 0.109 -0.327 0.185 -0.481 c 0.023 -0.046 0.048 -0.09 0.073 -0.134 c 0.091 -0.163 0.195 -0.314 0.314 -0.457 c 0.02 -0.024 0.038 -0.048 0.059 -0.071 c 0.55 -0.62 1.343 -1.018 2.236 -1.018 c 0.061 0 0.119 0.014 0.179 0.018 v 0 c 0 0 0.001 0 0.002 0 c 1.335 0.081 2.432 1.026 2.731 2.29 c 0.003 0.011 0.008 0.022 0.01 0.033 c 0.046 0.206 0.074 0.418 0.076 0.637 c 0 0.007 0.003 0.014 0.003 0.021 c 0 0.241 -0.036 0.472 -0.09 0.696 C 81.315 74.673 80.135 75.657 78.719 75.657 z M 81.114 68.295 c -0.714 -0.394 -1.523 -0.638 -2.395 -0.638 c -0.078 0 -0.15 0.019 -0.227 0.023 c -1.198 -5.287 -3.09 -10.294 -5.571 -14.928 c 1.052 -0.917 1.731 -2.251 1.731 -3.752 c 0 -1.385 -0.567 -2.638 -1.479 -3.545 c 3.986 -5.311 7.121 -11.315 9.17 -17.826 c 0.127 0.01 0.248 0.038 0.376 0.038 c 0.527 0 1.025 -0.104 1.503 -0.256 C 86.642 32.784 88 38.735 88 45 C 88 53.581 85.463 61.577 81.114 68.295 z" style="stroke: none; stroke-width: 1; stroke-dasharray: none; stroke-linecap: butt; stroke-linejoin: miter; stroke-miterlimit: 10; fill: rgb(0,0,0); fill-rule: nonzero; opacity: 1;" transform=" matrix(1 0 0 1 0 0) " stroke-linecap="round"/>
</g>
</svg>